<svg id="Layer_1" data-name="Layer 1" xmlns="http://www.w3.org/2000/svg" viewBox="0 0 250 250"><defs><style>.cls-1{fill:none;stroke:#fea65d;stroke-miterlimit:10;stroke-width:20px;}.cls-2{fill:#c77f84;}.cls-3{fill:#424242;}.cls-4{fill:#f1d5d2;}.cls-5{fill:#ffddc7;}</style></defs><path class="cls-1" d="M274.42,224.76a50,50,0,1,1-64.28-76.6"/><path class="cls-1" d="M-29.17,69.15A50,50,0,0,1,34.92,99,50,50,0,0,1,5,163.12"/><rect class="cls-2" x="5.91" y="217.46" width="20" height="40" transform="translate(110.99 19.29) rotate(27.38)"/><rect class="cls-2" x="19.39" y="213.17" width="20" height="40" transform="translate(-191.18 152.03) rotate(-62.62)"/><rect class="cls-2" x="32.86" y="208.89" width="20" height="40" transform="translate(110.07 5.93) rotate(27.38)"/><rect class="cls-2" x="46.34" y="204.61" width="20" height="40" transform="translate(-169.02 171.35) rotate(-62.62)"/><rect class="cls-2" x="49.82" y="210.33" width="40" height="20" transform="translate(-157.94 181) rotate(-62.62)"/><rect class="cls-2" x="73.3" y="196.05" width="20" height="40" transform="translate(-146.86 190.66) rotate(-62.62)"/><rect class="cls-2" x="76.78" y="201.77" width="40" height="20" transform="translate(-135.78 200.32) rotate(-62.62)"/><rect class="cls-2" x="137.43" y="-37.53" width="20" height="40" transform="translate(-0.13 -33.9) rotate(13.11)"/><rect class="cls-2" x="144.9" y="-25.53" width="20" height="40" transform="translate(184.66 -157.64) rotate(103.11)"/><rect class="cls-2" x="152.38" y="-13.52" width="20" height="40" transform="translate(5.7 -36.66) rotate(13.11)"/><rect class="cls-2" x="159.85" y="-1.51" width="20" height="40" transform="translate(113.31 179.72) rotate(-76.89)"/><rect class="cls-2" x="157.32" y="20.5" width="40" height="20" transform="translate(107.39 196.28) rotate(-76.89)"/><rect class="cls-2" x="174.79" y="22.51" width="20" height="40" transform="translate(101.48 212.84) rotate(-76.89)"/><rect class="cls-3" x="158.01" y="68.22" width="100" height="20" transform="matrix(0.94, -0.35, 0.35, 0.94, -14.22, 78.75)"/><rect class="cls-3" x="-16.94" y="-3.52" width="100" height="20" transform="translate(10.9 -18.89) rotate(37.78)"/><polygon class="cls-4" points="77.36 116.38 115.74 77.3 124.05 157.13 77.36 116.38"/><polygon class="cls-5" points="145.52 213.79 122.14 242.29 196.17 244 145.52 213.79"/></svg>